<svg width="22" height="24" viewBox="0 0 22 24" fill="none" xmlns="http://www.w3.org/2000/svg">
<path d="M18.2 3.03686C17.236 2.69875 16.4368 1.88903 16.4368 0.867476C16.4368 0.393256 16.0303 0 15.5402 0C15.0501 0 14.6437 0.393256 14.6437 0.867476C14.6437 1.82566 13.8669 2.60243 12.9087 2.60243H8.6085C7.65031 2.60243 6.87355 1.82566 6.87355 0.867476C6.87355 0.393256 6.46711 0 5.97699 0C5.48688 0 5.08044 0.393256 5.08044 0.867476C5.08044 1.88903 4.2812 2.69875 3.31723 3.03686C1.27167 3.75433 0.238338 5.38442 0.0477982 7.58753C0.0238902 7.92295 0.310787 8.20054 0.645499 8.20054H20.8717C21.2184 8.20054 21.5053 7.91139 21.4694 7.58753C21.2789 5.38442 20.2455 3.75433 18.2 3.03686Z" fill="white"/>
<path d="M20.3218 9.93532H1.1954C0.537931 9.93532 0 10.4558 0 11.092V18.2168C0 21.6867 1.7931 24 5.97701 24H15.5402C19.7241 24 21.5172 21.6867 21.5172 18.2168V11.092C21.5172 10.4558 20.9793 9.93532 20.3218 9.93532ZM7.42345 19.6164C7.36368 19.6626 7.30391 19.7204 7.24414 19.7551C7.17242 19.8014 7.10069 19.8361 7.02897 19.8592C6.95724 19.8939 6.88552 19.9171 6.81379 19.9286C6.73012 19.9402 6.65839 19.9518 6.57471 19.9518C6.41931 19.9518 6.26391 19.9171 6.12046 19.8592C5.96506 19.8014 5.84552 19.7204 5.72598 19.6164C5.5108 19.3966 5.37931 19.0959 5.37931 18.7951C5.37931 18.4944 5.5108 18.1937 5.72598 17.9739C5.84552 17.8698 5.96506 17.7889 6.12046 17.731C6.33563 17.6385 6.57471 17.6154 6.81379 17.6616C6.88552 17.6732 6.95724 17.6963 7.02897 17.731C7.10069 17.7542 7.17242 17.7889 7.24414 17.8351C7.30391 17.8814 7.36368 17.9277 7.42345 17.9739C7.63862 18.1937 7.77012 18.4944 7.77012 18.7951C7.77012 19.0959 7.63862 19.3966 7.42345 19.6164ZM7.42345 15.5681C7.19632 15.7763 6.88552 15.9036 6.57471 15.9036C6.26391 15.9036 5.9531 15.7763 5.72598 15.5681C5.5108 15.3484 5.37931 15.0476 5.37931 14.7469C5.37931 14.4462 5.5108 14.1455 5.72598 13.9257C6.06069 13.6018 6.58667 13.4978 7.02897 13.6828C7.18437 13.7406 7.31586 13.8216 7.42345 13.9257C7.63862 14.1455 7.77012 14.4462 7.77012 14.7469C7.77012 15.0476 7.63862 15.3484 7.42345 15.5681ZM11.6074 19.6164C11.3802 19.8245 11.0694 19.9518 10.7586 19.9518C10.4478 19.9518 10.137 19.8245 9.90989 19.6164C9.69471 19.3966 9.56322 19.0959 9.56322 18.7951C9.56322 18.4944 9.69471 18.1937 9.90989 17.9739C10.3522 17.546 11.1651 17.546 11.6074 17.9739C11.8225 18.1937 11.954 18.4944 11.954 18.7951C11.954 19.0959 11.8225 19.3966 11.6074 19.6164ZM11.6074 15.5681C11.5476 15.6144 11.4878 15.6607 11.428 15.7069C11.3563 15.7532 11.2846 15.7879 11.2129 15.811C11.1412 15.8457 11.0694 15.8689 10.9977 15.8804C10.914 15.892 10.8423 15.9036 10.7586 15.9036C10.4478 15.9036 10.137 15.7763 9.90989 15.5681C9.69471 15.3484 9.56322 15.0476 9.56322 14.7469C9.56322 14.4462 9.69471 14.1455 9.90989 13.9257C10.0175 13.8216 10.149 13.7406 10.3044 13.6828C10.7467 13.4978 11.2726 13.6018 11.6074 13.9257C11.8225 14.1455 11.954 14.4462 11.954 14.7469C11.954 15.0476 11.8225 15.3484 11.6074 15.5681ZM15.7913 19.6164C15.5641 19.8245 15.2533 19.9518 14.9425 19.9518C14.6317 19.9518 14.3209 19.8245 14.0938 19.6164C13.8786 19.3966 13.7471 19.0959 13.7471 18.7951C13.7471 18.4944 13.8786 18.1937 14.0938 17.9739C14.5361 17.546 15.349 17.546 15.7913 17.9739C16.0064 18.1937 16.1379 18.4944 16.1379 18.7951C16.1379 19.0959 16.0064 19.3966 15.7913 19.6164ZM15.7913 15.5681C15.7315 15.6144 15.6717 15.6607 15.612 15.7069C15.5402 15.7532 15.4685 15.7879 15.3968 15.811C15.3251 15.8457 15.2533 15.8689 15.1816 15.8804C15.0979 15.892 15.0143 15.9036 14.9425 15.9036C14.6317 15.9036 14.3209 15.7763 14.0938 15.5681C13.8786 15.3484 13.7471 15.0476 13.7471 14.7469C13.7471 14.4462 13.8786 14.1455 14.0938 13.9257C14.2133 13.8216 14.3329 13.7406 14.4883 13.6828C14.7035 13.5903 14.9425 13.5672 15.1816 13.6134C15.2533 13.625 15.3251 13.6481 15.3968 13.6828C15.4685 13.7059 15.5402 13.7406 15.612 13.7869C15.6717 13.8332 15.7315 13.8794 15.7913 13.9257C16.0064 14.1455 16.1379 14.4462 16.1379 14.7469C16.1379 15.0476 16.0064 15.3484 15.7913 15.5681Z" fill="white"/>
</svg>
