<svg width="111" height="113" viewBox="0 0 111 113" fill="none" xmlns="http://www.w3.org/2000/svg">
<path fill-rule="evenodd" clip-rule="evenodd" d="M26.1639 15.1615C25.1406 16.5361 22.9395 21.2169 21.8797 23.596L95.4814 54.4703C96.4378 52.043 98.2503 47.156 98.5007 45.5053C100.147 36.1423 95.794 27.8271 86.8038 23.089L50.3526 7.79849C40.6089 4.63002 31.7225 7.34821 26.1639 15.1615ZM8.80257 54.7324L21.8657 23.591L95.4957 54.4772L82.3279 85.8681C76.9417 98.7084 65.5477 103.213 52.6159 97.7882L20.9736 84.5149C8.16315 79.1412 3.38033 67.6585 8.80257 54.7324Z" fill="url(#paint0_linear_1_69)"/>
<g opacity="0.5" filter="url(#filter0_f_1_69)">
<path d="M70.5532 29.8643L50.139 21.6245C42.7342 18.6357 36.5214 21.6064 33.2633 29.6785L22.2284 57.0176C18.9168 65.222 21.3694 71.5673 28.7742 74.556L49.1884 82.7959C56.7126 85.8328 62.7608 82.9188 66.0724 74.7144L77.1073 47.3753C80.3654 39.3032 78.0774 32.9013 70.5532 29.8643Z" fill="#00B3A0"/>
</g>
<g filter="url(#filter1_b_1_69)">
<mask id="path-3-outside-1_1_69" maskUnits="userSpaceOnUse" x="29.1544" y="28.6279" width="82" height="85" fill="black">
<rect fill="white" x="29.1544" y="28.6279" width="82" height="85"/>
<path fill-rule="evenodd" clip-rule="evenodd" d="M30.8573 45.7745C30.4454 47.438 30.2262 52.6057 30.1693 55.2096H109.984C109.927 52.6013 109.708 47.3936 109.301 45.7745C107.197 36.5035 99.9663 30.5195 89.8432 29.6279H50.3147C40.104 30.4752 32.9608 36.4192 30.8573 45.7745ZM30.1544 55.2104V88.9807C30.1544 102.998 39.0067 111.737 52.8986 111.737H87.2121C101.235 111.737 110 103.175 110 89.2513V55.2104H30.1544ZM48.3847 74.5243C48.4724 76.5604 50.1377 78.1617 52.1535 78.0686C54.1256 77.9843 55.7032 76.2986 55.6155 74.2537C55.5717 72.262 53.9503 70.705 51.9782 70.705C49.9624 70.7982 48.3847 72.4838 48.3847 74.5243ZM66.3962 74.5243C66.4839 76.5604 68.1491 78.1617 70.165 78.0686C72.137 77.9843 73.7147 76.2986 73.627 74.2537C73.5832 72.262 71.9617 70.705 69.9897 70.705C67.9738 70.7982 66.3962 72.4838 66.3962 74.5243ZM84.4075 90.6221C84.4075 92.6626 86.029 94.3482 88.0448 94.3926C90.1045 94.3926 91.7698 92.707 91.7698 90.6221C91.7698 88.5417 90.1045 86.856 88.0448 86.856H88.001C85.9851 86.9004 84.3637 88.5816 84.4075 90.6221ZM70.165 94.1708C68.1491 94.2639 66.4839 92.6626 66.3962 90.6221C66.3962 88.5816 67.9738 86.9004 69.9897 86.8072C71.9617 86.8072 73.5832 88.3642 73.627 90.3604C73.7147 92.4009 72.137 94.0865 70.165 94.1708ZM52.1097 94.1708C50.0938 94.2639 48.4285 92.6626 48.3409 90.6221C48.3409 88.5816 49.9185 86.9004 51.9344 86.8072C53.9064 86.8072 55.5279 88.3642 55.5717 90.3604C55.6593 92.4009 54.0817 94.0865 52.1097 94.1708ZM88.0446 70.7538C86.0287 70.7982 84.4511 72.4394 84.4511 74.48V74.5243C84.4949 76.5604 86.1602 78.1129 88.1761 78.0686C90.1481 78.0287 91.7257 76.343 91.6819 74.3025C91.5943 72.3463 90.0166 70.7538 88.0446 70.7538Z"/>
</mask>
<path fill-rule="evenodd" clip-rule="evenodd" d="M30.8573 45.7745C30.4454 47.438 30.2262 52.6057 30.1693 55.2096H109.984C109.927 52.6013 109.708 47.3936 109.301 45.7745C107.197 36.5035 99.9663 30.5195 89.8432 29.6279H50.3147C40.104 30.4752 32.9608 36.4192 30.8573 45.7745ZM30.1544 55.2104V88.9807C30.1544 102.998 39.0067 111.737 52.8986 111.737H87.2121C101.235 111.737 110 103.175 110 89.2513V55.2104H30.1544ZM48.3847 74.5243C48.4724 76.5604 50.1377 78.1617 52.1535 78.0686C54.1256 77.9843 55.7032 76.2986 55.6155 74.2537C55.5717 72.262 53.9503 70.705 51.9782 70.705C49.9624 70.7982 48.3847 72.4838 48.3847 74.5243ZM66.3962 74.5243C66.4839 76.5604 68.1491 78.1617 70.165 78.0686C72.137 77.9843 73.7147 76.2986 73.627 74.2537C73.5832 72.262 71.9617 70.705 69.9897 70.705C67.9738 70.7982 66.3962 72.4838 66.3962 74.5243ZM84.4075 90.6221C84.4075 92.6626 86.029 94.3482 88.0448 94.3926C90.1045 94.3926 91.7698 92.707 91.7698 90.6221C91.7698 88.5417 90.1045 86.856 88.0448 86.856H88.001C85.9851 86.9004 84.3637 88.5816 84.4075 90.6221ZM70.165 94.1708C68.1491 94.2639 66.4839 92.6626 66.3962 90.6221C66.3962 88.5816 67.9738 86.9004 69.9897 86.8072C71.9617 86.8072 73.5832 88.3642 73.627 90.3604C73.7147 92.4009 72.137 94.0865 70.165 94.1708ZM52.1097 94.1708C50.0938 94.2639 48.4285 92.6626 48.3409 90.6221C48.3409 88.5816 49.9185 86.9004 51.9344 86.8072C53.9064 86.8072 55.5279 88.3642 55.5717 90.3604C55.6593 92.4009 54.0817 94.0865 52.1097 94.1708ZM88.0446 70.7538C86.0287 70.7982 84.4511 72.4394 84.4511 74.48V74.5243C84.4949 76.5604 86.1602 78.1129 88.1761 78.0686C90.1481 78.0287 91.7257 76.343 91.6819 74.3025C91.5943 72.3463 90.0166 70.7538 88.0446 70.7538Z" fill="#00B3A0" fill-opacity="0.35"/>
<path d="M30.1693 55.2096L29.1695 55.1877C29.1636 55.4567 29.2663 55.7166 29.4545 55.9089C29.6426 56.1012 29.9003 56.2096 30.1693 56.2096V55.2096ZM30.8573 45.7745L31.828 46.0149C31.8297 46.0079 31.8314 46.0009 31.8329 45.9939L30.8573 45.7745ZM109.984 55.2096V56.2096C110.253 56.2096 110.511 56.1012 110.699 55.9089C110.887 55.7167 110.99 55.4567 110.984 55.1878L109.984 55.2096ZM109.301 45.7745L108.325 45.9958C108.327 46.0034 108.329 46.011 108.331 46.0186L109.301 45.7745ZM89.8432 29.6279L89.9309 28.6318C89.9017 28.6292 89.8725 28.6279 89.8432 28.6279V29.6279ZM50.3147 29.6279V28.6279C50.2871 28.6279 50.2596 28.6291 50.2321 28.6314L50.3147 29.6279ZM30.1544 55.2104V54.2104C29.6021 54.2104 29.1544 54.6581 29.1544 55.2104H30.1544ZM110 55.2104H111C111 54.6581 110.552 54.2104 110 54.2104V55.2104ZM52.1535 78.0686L52.1108 77.0695L52.1074 77.0696L52.1535 78.0686ZM48.3847 74.5243H47.3847C47.3847 74.5386 47.385 74.553 47.3857 74.5673L48.3847 74.5243ZM55.6155 74.2537L54.6158 74.2757C54.6159 74.2827 54.6162 74.2896 54.6165 74.2965L55.6155 74.2537ZM51.9782 70.705V69.705C51.9628 69.705 51.9474 69.7054 51.9321 69.7061L51.9782 70.705ZM70.165 78.0686L70.1223 77.0695L70.1188 77.0696L70.165 78.0686ZM66.3962 74.5243H65.3962C65.3962 74.5386 65.3965 74.553 65.3971 74.5673L66.3962 74.5243ZM73.627 74.2537L72.6273 74.2757C72.6274 74.2827 72.6276 74.2896 72.6279 74.2965L73.627 74.2537ZM69.9897 70.705V69.705C69.9743 69.705 69.9589 69.7054 69.9435 69.7061L69.9897 70.705ZM88.0448 94.3926L88.0228 95.3923C88.0302 95.3925 88.0375 95.3926 88.0448 95.3926V94.3926ZM84.4075 90.6221H85.4075C85.4075 90.6149 85.4074 90.6078 85.4073 90.6006L84.4075 90.6221ZM88.001 86.856V85.856C87.9937 85.856 87.9863 85.8561 87.979 85.8563L88.001 86.856ZM66.3962 90.6221H65.3962C65.3962 90.6364 65.3965 90.6507 65.3971 90.665L66.3962 90.6221ZM70.165 94.1708L70.1223 93.1717L70.1188 93.1719L70.165 94.1708ZM69.9897 86.8072V85.8072C69.9743 85.8072 69.9589 85.8076 69.9435 85.8083L69.9897 86.8072ZM73.627 90.3604L72.6273 90.3823C72.6274 90.3893 72.6276 90.3963 72.6279 90.4033L73.627 90.3604ZM48.3409 90.6221H47.3409C47.3409 90.6364 47.3412 90.6507 47.3418 90.665L48.3409 90.6221ZM52.1097 94.1708L52.067 93.1717L52.0635 93.1719L52.1097 94.1708ZM51.9344 86.8072V85.8072C51.919 85.8072 51.9036 85.8076 51.8882 85.8083L51.9344 86.8072ZM55.5717 90.3604L54.5719 90.3823C54.5721 90.3893 54.5723 90.3963 54.5726 90.4033L55.5717 90.3604ZM88.0446 70.7538V69.7538C88.0373 69.7538 88.0299 69.7539 88.0226 69.7541L88.0446 70.7538ZM84.4511 74.5243H83.4511C83.4511 74.5315 83.4512 74.5387 83.4513 74.5458L84.4511 74.5243ZM88.1761 78.0686L88.1558 77.0688L88.1541 77.0688L88.1761 78.0686ZM91.6819 74.3025L92.6817 74.281C92.6815 74.2733 92.6813 74.2655 92.6809 74.2578L91.6819 74.3025ZM31.169 55.2315C31.1973 53.94 31.2658 52.0108 31.3782 50.2014C31.493 48.3546 31.6479 46.7421 31.828 46.0149L29.8866 45.5341C29.6548 46.4703 29.4942 48.2734 29.3821 50.0774C29.2677 51.9187 29.1982 53.8753 29.1695 55.1877L31.169 55.2315ZM109.984 54.2096H30.1693V56.2096H109.984V54.2096ZM108.331 46.0186C108.508 46.7207 108.662 48.3283 108.776 50.1826C108.888 51.9972 108.956 53.9376 108.985 55.2314L110.984 55.1878C110.955 53.8733 110.886 51.9057 110.772 50.0596C110.661 48.2532 110.501 46.4474 110.27 45.5304L108.331 46.0186ZM89.7554 30.6241C99.4884 31.4813 106.327 37.1887 108.325 45.9958L110.276 45.5532C108.067 35.8184 100.444 29.5578 89.9309 28.6318L89.7554 30.6241ZM50.3147 30.6279H89.8432V28.6279H50.3147V30.6279ZM31.8329 45.9939C33.8323 37.1018 40.5834 31.4388 50.3974 30.6245L50.2321 28.6314C39.6246 29.5115 32.0893 35.7367 29.8817 45.5551L31.8329 45.9939ZM31.1544 88.9807V55.2104H29.1544V88.9807H31.1544ZM52.8986 110.737C46.1649 110.737 40.751 108.623 37.023 104.907C33.2955 101.192 31.1544 95.7756 31.1544 88.9807H29.1544C29.1544 96.2032 31.4394 102.165 35.6111 106.323C39.7822 110.481 45.7404 112.737 52.8986 112.737V110.737ZM87.2121 110.737H52.8986V112.737H87.2121V110.737ZM109 89.2513C109 96 106.881 101.345 103.164 105.003C99.4442 108.662 94.0195 110.737 87.2121 110.737V112.737C94.4281 112.737 100.397 110.53 104.566 106.428C108.737 102.324 111 96.4268 111 89.2513H109ZM109 55.2104V89.2513H111V55.2104H109ZM30.1544 56.2104H110V54.2104H30.1544V56.2104ZM52.1074 77.0696C50.6768 77.1357 49.4491 75.9974 49.3838 74.4813L47.3857 74.5673C47.4957 77.1234 49.5985 79.1877 52.1997 79.0675L52.1074 77.0696ZM54.6165 74.2965C54.6805 75.7914 53.5293 77.0089 52.1108 77.0695L52.1962 79.0676C54.7218 78.9597 56.7258 76.8059 56.6146 74.2109L54.6165 74.2965ZM51.9782 71.705C53.4136 71.705 54.5841 72.8346 54.6158 74.2757L56.6153 74.2317C56.5594 71.6894 54.4869 69.705 51.9782 69.705V71.705ZM49.3847 74.5243C49.3847 73.003 50.5573 71.7717 52.0244 71.704L51.9321 69.7061C49.3675 69.8246 47.3847 71.9646 47.3847 74.5243H49.3847ZM70.1188 77.0696C68.6883 77.1357 67.4605 75.9974 67.3953 74.4813L65.3971 74.5673C65.5072 77.1234 67.6099 79.1877 70.2112 79.0675L70.1188 77.0696ZM72.6279 74.2965C72.692 75.7914 71.5408 77.0089 70.1223 77.0695L70.2077 79.0676C72.7333 78.9597 74.7373 76.8059 74.6261 74.2109L72.6279 74.2965ZM69.9897 71.705C71.4251 71.705 72.5955 72.8346 72.6273 74.2757L74.6268 74.2317C74.5708 71.6894 72.4984 69.705 69.9897 69.705V71.705ZM67.3962 74.5243C67.3962 73.003 68.5687 71.7717 70.0359 71.704L69.9435 69.7061C67.3789 69.8246 65.3962 71.9646 65.3962 74.5243H67.3962ZM88.0668 93.3928C86.6083 93.3607 85.4075 92.1328 85.4075 90.6221H83.4075C83.4075 93.1924 85.4496 95.3357 88.0228 95.3923L88.0668 93.3928ZM90.7698 90.6221C90.7698 92.1662 89.5408 93.3926 88.0448 93.3926V95.3926C90.6682 95.3926 92.7698 93.2477 92.7698 90.6221H90.7698ZM88.0448 87.856C89.5416 87.856 90.7698 89.0832 90.7698 90.6221H92.7698C92.7698 88.0001 90.6674 85.856 88.0448 85.856V87.856ZM88.001 87.856H88.0448V85.856H88.001V87.856ZM85.4073 90.6006C85.3753 89.112 86.5592 87.888 88.023 87.8558L87.979 85.8563C85.4111 85.9128 83.3521 88.0512 83.4077 90.6436L85.4073 90.6006ZM65.3971 90.665C65.5071 93.2248 67.6092 95.29 70.2111 95.1697L70.1188 93.1719C68.6891 93.2379 67.4606 92.1004 67.3953 90.5792L65.3971 90.665ZM69.9435 85.8083C67.3804 85.9268 65.3962 88.0609 65.3962 90.6221H67.3962C67.3962 89.1023 68.5673 87.874 70.0359 87.8062L69.9435 85.8083ZM74.6268 90.3384C74.5709 87.7924 72.4992 85.8072 69.9897 85.8072V87.8072C71.4243 87.8072 72.5955 88.936 72.6273 90.3823L74.6268 90.3384ZM70.2077 95.1699C72.7325 95.062 74.7374 92.9089 74.6261 90.3175L72.6279 90.4033C72.6919 91.8928 71.5416 93.111 70.1223 93.1717L70.2077 95.1699ZM47.3418 90.665C47.4518 93.2248 49.5539 95.29 52.1558 95.1697L52.0635 93.1719C50.6337 93.2379 49.4053 92.1004 49.34 90.5792L47.3418 90.665ZM51.8882 85.8083C49.3251 85.9268 47.3409 88.0609 47.3409 90.6221H49.3409C49.3409 89.1023 50.5119 87.874 51.9805 87.8062L51.8882 85.8083ZM56.5714 90.3384C56.5156 87.7924 54.4439 85.8072 51.9344 85.8072V87.8072C53.369 87.8072 54.5402 88.936 54.5719 90.3823L56.5714 90.3384ZM52.1524 95.1699C54.6772 95.062 56.6821 92.9089 56.5708 90.3175L54.5726 90.4033C54.6366 91.8928 53.4862 93.111 52.067 93.1717L52.1524 95.1699ZM85.4511 74.48C85.4511 72.9689 86.6085 71.7857 88.0666 71.7536L88.0226 69.7541C85.449 69.8107 83.4511 71.91 83.4511 74.48H85.4511ZM85.4511 74.5243V74.48H83.4511V74.5243H85.4511ZM88.1541 77.0688C86.6788 77.1013 85.4825 75.9748 85.4509 74.5028L83.4513 74.5458C83.5073 77.1459 85.6416 79.1246 88.1981 79.0683L88.1541 77.0688ZM90.6821 74.324C90.7147 75.8386 89.5488 77.0406 88.1558 77.0688L88.1963 79.0684C90.7474 79.0167 92.7368 76.8474 92.6817 74.281L90.6821 74.324ZM88.0446 71.7538C89.4538 71.7538 90.6179 72.897 90.6829 74.3473L92.6809 74.2578C92.5706 71.7955 90.5794 69.7538 88.0446 69.7538V71.7538Z" fill="url(#paint1_linear_1_69)" mask="url(#path-3-outside-1_1_69)"/>
</g>
<g filter="url(#filter2_bd_1_69)">
<mask id="path-5-inside-2_1_69" fill="white">
<path fill-rule="evenodd" clip-rule="evenodd" d="M89.8419 39.9638C89.8419 41.92 88.3519 43.3794 86.4675 43.3794C84.5393 43.3794 83.0931 41.92 83.0931 39.9638V26.4389C83.0931 24.4826 84.5393 23.0188 86.4675 23.0188C88.3519 23.0188 89.8419 24.4826 89.8419 26.4389V39.9638ZM57.0609 39.9639C57.0609 41.9201 55.6147 43.3795 53.6865 43.3795C51.7583 43.3795 50.3121 41.9201 50.3121 39.9639V26.4389C50.3121 24.4827 51.7583 23.0189 53.6865 23.0189C55.6147 23.0189 57.0609 24.4827 57.0609 26.4389V39.9639Z"/>
</mask>
<path fill-rule="evenodd" clip-rule="evenodd" d="M89.8419 39.9638C89.8419 41.92 88.3519 43.3794 86.4675 43.3794C84.5393 43.3794 83.0931 41.92 83.0931 39.9638V26.4389C83.0931 24.4826 84.5393 23.0188 86.4675 23.0188C88.3519 23.0188 89.8419 24.4826 89.8419 26.4389V39.9638ZM57.0609 39.9639C57.0609 41.9201 55.6147 43.3795 53.6865 43.3795C51.7583 43.3795 50.3121 41.9201 50.3121 39.9639V26.4389C50.3121 24.4827 51.7583 23.0189 53.6865 23.0189C55.6147 23.0189 57.0609 24.4827 57.0609 26.4389V39.9639Z" fill="url(#paint2_linear_1_69)"/>
<path d="M86.4675 43.7794C88.5737 43.7794 90.2419 42.1401 90.2419 39.9638H89.4419C89.4419 41.7 88.1302 42.9794 86.4675 42.9794V43.7794ZM82.6931 39.9638C82.6931 42.1367 84.3142 43.7794 86.4675 43.7794V42.9794C84.7644 42.9794 83.4931 41.7034 83.4931 39.9638H82.6931ZM82.6931 26.4389V39.9638H83.4931V26.4389H82.6931ZM86.4675 22.6188C84.3135 22.6188 82.6931 24.2667 82.6931 26.4389H83.4931C83.4931 24.6986 84.7651 23.4188 86.4675 23.4188V22.6188ZM90.2419 26.4389C90.2419 24.2632 88.5743 22.6188 86.4675 22.6188V23.4188C88.1295 23.4188 89.4419 24.702 89.4419 26.4389H90.2419ZM90.2419 39.9638V26.4389H89.4419V39.9638H90.2419ZM53.6865 43.7795C55.8398 43.7795 57.4609 42.1368 57.4609 39.9639H56.6609C56.6609 41.7034 55.3896 42.9795 53.6865 42.9795V43.7795ZM49.9121 39.9639C49.9121 42.1368 51.5331 43.7795 53.6865 43.7795V42.9795C51.9834 42.9795 50.7121 41.7034 50.7121 39.9639H49.9121ZM49.9121 26.4389V39.9639H50.7121V26.4389H49.9121ZM53.6865 22.6189C51.5324 22.6189 49.9121 24.2667 49.9121 26.4389H50.7121C50.7121 24.6987 51.9841 23.4189 53.6865 23.4189V22.6189ZM57.4609 26.4389C57.4609 24.2667 55.8405 22.6189 53.6865 22.6189V23.4189C55.3889 23.4189 56.6609 24.6987 56.6609 26.4389H57.4609ZM57.4609 39.9639V26.4389H56.6609V39.9639H57.4609Z" fill="url(#paint3_linear_1_69)" mask="url(#path-5-inside-2_1_69)"/>
</g>
<g filter="url(#filter3_bd_1_69)">
<mask id="path-7-inside-3_1_69" fill="white">
<path fill-rule="evenodd" clip-rule="evenodd" d="M48.4251 74.5646C48.5127 76.6007 50.178 78.2021 52.1939 78.1089C54.1659 78.0246 55.7435 76.339 55.6559 74.2941C55.6121 72.3024 53.9906 70.7454 52.0186 70.7454C50.0027 70.8385 48.4251 72.5241 48.4251 74.5646ZM66.4356 74.5646C66.5232 76.6007 68.1885 78.2021 70.2044 78.1089C72.1764 78.0246 73.7541 76.339 73.6664 74.2941C73.6226 72.3024 72.0011 70.7454 70.0291 70.7454C68.0132 70.8385 66.4356 72.5241 66.4356 74.5646ZM84.4469 90.6622C84.4469 92.7027 86.0683 94.3883 88.0842 94.4327C90.1439 94.4327 91.8092 92.747 91.8092 90.6622C91.8092 88.5818 90.1439 86.8961 88.0842 86.8961H88.0404C86.0245 86.9405 84.4031 88.6217 84.4469 90.6622ZM70.2044 94.2113C68.1885 94.3044 66.5232 92.7031 66.4356 90.6626C66.4356 88.6221 68.0132 86.9409 70.0291 86.8477C72.0011 86.8477 73.6226 88.4047 73.6664 90.4009C73.7541 92.4414 72.1764 94.127 70.2044 94.2113ZM52.149 94.2113C50.1332 94.3044 48.4679 92.7031 48.3802 90.6626C48.3802 88.6221 49.9579 86.9409 51.9737 86.8477C53.9458 86.8477 55.5672 88.4047 55.6111 90.4009C55.6987 92.4414 54.1211 94.127 52.149 94.2113ZM88.084 70.7943C86.0681 70.8387 84.4905 72.4799 84.4905 74.5204V74.5648C84.5343 76.6008 86.1996 78.1534 88.2155 78.109C90.1875 78.0691 91.7651 76.3835 91.7213 74.343C91.6337 72.3868 90.056 70.7943 88.084 70.7943Z"/>
</mask>
<path fill-rule="evenodd" clip-rule="evenodd" d="M48.4251 74.5646C48.5127 76.6007 50.178 78.2021 52.1939 78.1089C54.1659 78.0246 55.7435 76.339 55.6559 74.2941C55.6121 72.3024 53.9906 70.7454 52.0186 70.7454C50.0027 70.8385 48.4251 72.5241 48.4251 74.5646ZM66.4356 74.5646C66.5232 76.6007 68.1885 78.2021 70.2044 78.1089C72.1764 78.0246 73.7541 76.339 73.6664 74.2941C73.6226 72.3024 72.0011 70.7454 70.0291 70.7454C68.0132 70.8385 66.4356 72.5241 66.4356 74.5646ZM84.4469 90.6622C84.4469 92.7027 86.0683 94.3883 88.0842 94.4327C90.1439 94.4327 91.8092 92.747 91.8092 90.6622C91.8092 88.5818 90.1439 86.8961 88.0842 86.8961H88.0404C86.0245 86.9405 84.4031 88.6217 84.4469 90.6622ZM70.2044 94.2113C68.1885 94.3044 66.5232 92.7031 66.4356 90.6626C66.4356 88.6221 68.0132 86.9409 70.0291 86.8477C72.0011 86.8477 73.6226 88.4047 73.6664 90.4009C73.7541 92.4414 72.1764 94.127 70.2044 94.2113ZM52.149 94.2113C50.1332 94.3044 48.4679 92.7031 48.3802 90.6626C48.3802 88.6221 49.9579 86.9409 51.9737 86.8477C53.9458 86.8477 55.5672 88.4047 55.6111 90.4009C55.6987 92.4414 54.1211 94.127 52.149 94.2113ZM88.084 70.7943C86.0681 70.8387 84.4905 72.4799 84.4905 74.5204V74.5648C84.5343 76.6008 86.1996 78.1534 88.2155 78.109C90.1875 78.0691 91.7651 76.3835 91.7213 74.343C91.6337 72.3868 90.056 70.7943 88.084 70.7943Z" fill="url(#paint4_linear_1_69)"/>
<path d="M52.1939 78.1089L52.1768 77.7093L52.1754 77.7093L52.1939 78.1089ZM48.4251 74.5646H48.0251V74.5733L48.0254 74.5819L48.4251 74.5646ZM55.6559 74.2941L55.2559 74.3029L55.2563 74.3112L55.6559 74.2941ZM52.0186 70.7454V70.3454H52.0093L52.0001 70.3458L52.0186 70.7454ZM70.2044 78.1089L70.1873 77.7093L70.1859 77.7093L70.2044 78.1089ZM66.4356 74.5646H66.0356V74.5733L66.036 74.5819L66.4356 74.5646ZM73.6664 74.2941L73.2664 74.3029L73.2668 74.3112L73.6664 74.2941ZM70.0291 70.7454V70.3454H70.0199L70.0106 70.3458L70.0291 70.7454ZM88.0842 94.4327L88.0754 94.8327H88.0842V94.4327ZM84.4469 90.6622H84.847L84.8468 90.6536L84.4469 90.6622ZM88.0404 86.8961V86.496L88.0316 86.4962L88.0404 86.8961ZM66.4356 90.6626H66.0356V90.6712L66.036 90.6797L66.4356 90.6626ZM70.2044 94.2113L70.1873 93.8116L70.1859 93.8117L70.2044 94.2113ZM70.0291 86.8477V86.4477H70.0199L70.0106 86.4481L70.0291 86.8477ZM73.6664 90.4009L73.2664 90.4096L73.2668 90.418L73.6664 90.4009ZM48.3802 90.6626H47.9802V90.6712L47.9806 90.6797L48.3802 90.6626ZM52.149 94.2113L52.132 93.8116L52.1306 93.8117L52.149 94.2113ZM51.9737 86.8477V86.4477H51.9645L51.9553 86.4481L51.9737 86.8477ZM55.6111 90.4009L55.2111 90.4096L55.2114 90.418L55.6111 90.4009ZM88.084 70.7943V70.3942L88.0752 70.3944L88.084 70.7943ZM84.4905 74.5648H84.0904L84.0906 74.5734L84.4905 74.5648ZM88.2155 78.109L88.2074 77.7091L88.2067 77.7091L88.2155 78.109ZM91.7213 74.343L92.1213 74.3344L92.1209 74.3251L91.7213 74.343ZM52.1754 77.7093C50.3937 77.7917 48.9034 76.3755 48.8247 74.5474L48.0254 74.5819C48.122 76.8259 49.9623 78.6125 52.2123 78.5085L52.1754 77.7093ZM55.2563 74.3112C55.3345 76.1361 53.9274 77.6345 52.1768 77.7093L52.2109 78.5085C54.4044 78.4148 56.1526 76.5419 56.0555 74.2769L55.2563 74.3112ZM52.0186 71.1454C53.7759 71.1454 55.217 72.5314 55.256 74.3029L56.0558 74.2853C56.0071 72.0733 54.2053 70.3454 52.0186 70.3454V71.1454ZM48.8251 74.5646C48.8251 72.7318 50.2407 71.2279 52.037 71.1449L52.0001 70.3458C49.7647 70.4491 48.0251 72.3165 48.0251 74.5646H48.8251ZM70.1859 77.7093C68.4042 77.7917 66.9139 76.3755 66.8352 74.5474L66.036 74.5819C66.1326 76.8259 67.9728 78.6125 70.2228 78.5085L70.1859 77.7093ZM73.2668 74.3112C73.345 76.1361 71.9379 77.6345 70.1873 77.7093L70.2215 78.5085C72.4149 78.4148 74.1631 76.5419 74.066 74.2769L73.2668 74.3112ZM70.0291 71.1454C71.7865 71.1454 73.2275 72.5314 73.2665 74.3029L74.0663 74.2853C74.0176 72.0733 72.2158 70.3454 70.0291 70.3454V71.1454ZM66.8356 74.5646C66.8356 72.7318 68.2512 71.2279 70.0476 71.1449L70.0106 70.3458C67.7753 70.4491 66.0356 72.3165 66.0356 74.5646H66.8356ZM88.093 94.0328C86.3001 93.9933 84.8469 92.4907 84.8469 90.6622H84.0469C84.0469 92.9146 85.8366 94.7833 88.0754 94.8326L88.093 94.0328ZM91.4092 90.6622C91.4092 92.5307 89.9184 94.0327 88.0842 94.0327V94.8327C90.3694 94.8327 92.2092 92.9634 92.2092 90.6622H91.4092ZM88.0842 87.2961C89.9187 87.2961 91.4092 88.7984 91.4092 90.6622H92.2092C92.2092 88.3651 90.3691 86.4961 88.0842 86.4961V87.2961ZM88.0404 87.2961H88.0842V86.4961H88.0404V87.2961ZM84.8468 90.6536C84.8077 88.8338 86.2541 87.3355 88.0492 87.296L88.0316 86.4962C85.7949 86.5454 83.9984 88.4095 84.047 90.6708L84.8468 90.6536ZM66.036 90.6797C66.1325 92.928 67.9725 94.7148 70.2228 94.6108L70.1859 93.8117C68.4045 93.894 66.914 92.4782 66.8352 90.6454L66.036 90.6797ZM70.0106 86.4481C67.7759 86.5514 66.0356 88.4138 66.0356 90.6626H66.8356C66.8356 88.8304 68.2506 87.3303 70.0476 87.2473L70.0106 86.4481ZM74.0663 90.3921C74.0177 88.176 72.2161 86.4477 70.0291 86.4477V87.2477C71.7861 87.2477 73.2275 88.6334 73.2665 90.4096L74.0663 90.3921ZM70.2215 94.6109C72.4146 94.5172 74.1632 92.6446 74.066 90.3837L73.2668 90.418C73.345 92.2381 71.9382 93.7368 70.1873 93.8116L70.2215 94.6109ZM47.9806 90.6797C48.0772 92.928 49.9172 94.7148 52.1675 94.6108L52.1306 93.8117C50.3492 93.894 48.8586 92.4782 48.7799 90.6454L47.9806 90.6797ZM51.9553 86.4481C49.7205 86.5514 47.9802 88.4138 47.9802 90.6626H48.7802C48.7802 88.8304 50.1953 87.3303 51.9922 87.2473L51.9553 86.4481ZM56.011 90.3921C55.9623 88.176 54.1608 86.4477 51.9737 86.4477V87.2477C53.7308 87.2477 55.1722 88.6334 55.2112 90.4096L56.011 90.3921ZM52.1661 94.6109C54.3593 94.5172 56.1078 92.6446 56.0107 90.3837L55.2114 90.418C55.2896 92.2381 53.8829 93.7368 52.132 93.8116L52.1661 94.6109ZM84.8905 74.5204C84.8905 72.6917 86.3 71.2336 88.0928 71.1942L88.0752 70.3944C85.8362 70.4437 84.0905 72.2681 84.0905 74.5204H84.8905ZM84.8905 74.5648V74.5204H84.0905V74.5648H84.8905ZM88.2067 77.7091C86.407 77.7487 84.9294 76.3666 84.8904 74.5562L84.0906 74.5734C84.1393 76.8351 85.9922 78.5581 88.2243 78.5089L88.2067 77.7091ZM91.3214 74.3516C91.3607 76.1817 89.9478 77.6739 88.2074 77.7091L88.2236 78.509C90.4272 78.4644 92.1696 76.5853 92.1212 74.3344L91.3214 74.3516ZM88.084 71.1943C89.8309 71.1943 91.2431 72.6071 91.3217 74.3609L92.1209 74.3251C92.0242 72.1665 90.2812 70.3943 88.084 70.3943V71.1943Z" fill="url(#paint5_linear_1_69)" mask="url(#path-7-inside-3_1_69)"/>
</g>
<g opacity="0.5" filter="url(#filter4_b_1_69)">
<path d="M34.228 55.5438C34.228 57.4282 35.6874 58.9182 37.6437 58.9182L100.877 58.9182C102.833 58.9182 104.297 57.4282 104.297 55.5438C104.297 53.6156 102.833 52.1694 100.877 52.1694L37.6437 52.1694C35.6874 52.1694 34.228 53.6156 34.228 55.5438Z" fill="url(#paint6_linear_1_69)" fill-opacity="0.5"/>
</g>
<defs>
<filter id="filter0_f_1_69" x="1.78162" y="1.48633" width="95.7691" height="101.483" filterUnits="userSpaceOnUse" color-interpolation-filters="sRGB">
<feFlood flood-opacity="0" result="BackgroundImageFix"/>
<feBlend mode="normal" in="SourceGraphic" in2="BackgroundImageFix" result="shape"/>
<feGaussianBlur stdDeviation="9.5" result="effect1_foregroundBlur_1_69"/>
</filter>
<filter id="filter1_b_1_69" x="5.15442" y="4.62793" width="129.846" height="132.109" filterUnits="userSpaceOnUse" color-interpolation-filters="sRGB">
<feFlood flood-opacity="0" result="BackgroundImageFix"/>
<feGaussianBlur in="BackgroundImageFix" stdDeviation="12"/>
<feComposite in2="SourceAlpha" operator="in" result="effect1_backgroundBlur_1_69"/>
<feBlend mode="normal" in="SourceGraphic" in2="effect1_backgroundBlur_1_69" result="shape"/>
</filter>
<filter id="filter2_bd_1_69" x="35.3121" y="8.0188" width="69.5298" height="50.3607" filterUnits="userSpaceOnUse" color-interpolation-filters="sRGB">
<feFlood flood-opacity="0" result="BackgroundImageFix"/>
<feGaussianBlur in="BackgroundImageFix" stdDeviation="7.5"/>
<feComposite in2="SourceAlpha" operator="in" result="effect1_backgroundBlur_1_69"/>
<feColorMatrix in="SourceAlpha" type="matrix" values="0 0 0 0 0 0 0 0 0 0 0 0 0 0 0 0 0 0 127 0" result="hardAlpha"/>
<feOffset dx="5" dy="5"/>
<feGaussianBlur stdDeviation="5"/>
<feColorMatrix type="matrix" values="0 0 0 0 1 0 0 0 0 0.537255 0 0 0 0 0.160784 0 0 0 0.2 0"/>
<feBlend mode="normal" in2="effect1_backgroundBlur_1_69" result="effect2_dropShadow_1_69"/>
<feBlend mode="normal" in="SourceGraphic" in2="effect2_dropShadow_1_69" result="shape"/>
</filter>
<filter id="filter3_bd_1_69" x="33.3802" y="55.7454" width="73.4289" height="53.6873" filterUnits="userSpaceOnUse" color-interpolation-filters="sRGB">
<feFlood flood-opacity="0" result="BackgroundImageFix"/>
<feGaussianBlur in="BackgroundImageFix" stdDeviation="7.5"/>
<feComposite in2="SourceAlpha" operator="in" result="effect1_backgroundBlur_1_69"/>
<feColorMatrix in="SourceAlpha" type="matrix" values="0 0 0 0 0 0 0 0 0 0 0 0 0 0 0 0 0 0 127 0" result="hardAlpha"/>
<feOffset dx="5" dy="5"/>
<feGaussianBlur stdDeviation="5"/>
<feColorMatrix type="matrix" values="0 0 0 0 0 0 0 0 0 0.514518 0 0 0 0 0.459904 0 0 0 0.5 0"/>
<feBlend mode="normal" in2="effect1_backgroundBlur_1_69" result="effect2_dropShadow_1_69"/>
<feBlend mode="normal" in="SourceGraphic" in2="effect2_dropShadow_1_69" result="shape"/>
</filter>
<filter id="filter4_b_1_69" x="19.228" y="37.1694" width="100.069" height="36.7488" filterUnits="userSpaceOnUse" color-interpolation-filters="sRGB">
<feFlood flood-opacity="0" result="BackgroundImageFix"/>
<feGaussianBlur in="BackgroundImageFix" stdDeviation="7.5"/>
<feComposite in2="SourceAlpha" operator="in" result="effect1_backgroundBlur_1_69"/>
<feBlend mode="normal" in="SourceGraphic" in2="effect1_backgroundBlur_1_69" result="shape"/>
</filter>
<linearGradient id="paint0_linear_1_69" x1="68.5766" y1="15.4431" x2="36.815" y2="91.16" gradientUnits="userSpaceOnUse">
<stop stop-color="#7DD6CC"/>
<stop offset="1" stop-color="#00B3A0"/>
</linearGradient>
<linearGradient id="paint1_linear_1_69" x1="42.8645" y1="39.1937" x2="95.5309" y2="102.624" gradientUnits="userSpaceOnUse">
<stop stop-color="white" stop-opacity="0.25"/>
<stop offset="1" stop-color="white" stop-opacity="0"/>
</linearGradient>
<linearGradient id="paint2_linear_1_69" x1="87.4586" y1="40.2198" x2="88.6457" y2="24.927" gradientUnits="userSpaceOnUse">
<stop stop-color="white"/>
<stop offset="1" stop-color="white" stop-opacity="0.2"/>
</linearGradient>
<linearGradient id="paint3_linear_1_69" x1="86.3723" y1="26.0975" x2="102.445" y2="32.126" gradientUnits="userSpaceOnUse">
<stop stop-color="white" stop-opacity="0.25"/>
<stop offset="1" stop-color="white" stop-opacity="0"/>
</linearGradient>
<linearGradient id="paint4_linear_1_69" x1="88.7301" y1="75.0228" x2="15.506" y2="70.1983" gradientUnits="userSpaceOnUse">
<stop stop-color="white"/>
<stop offset="1" stop-color="white" stop-opacity="0.2"/>
</linearGradient>
<linearGradient id="paint5_linear_1_69" x1="55.2934" y1="73.505" x2="66.6961" y2="99.3975" gradientUnits="userSpaceOnUse">
<stop stop-color="white" stop-opacity="0.25"/>
<stop offset="1" stop-color="white" stop-opacity="0"/>
</linearGradient>
<linearGradient id="paint6_linear_1_69" x1="53.1398" y1="55.4486" x2="50.6276" y2="47.5798" gradientUnits="userSpaceOnUse">
<stop stop-color="white"/>
<stop offset="1" stop-color="white" stop-opacity="0.2"/>
</linearGradient>
</defs>
</svg>
