<svg width="40" height="40" viewBox="0 0 40 40" fill="none" xmlns="http://www.w3.org/2000/svg">
<g clip-path="url(#clip0_1_490)">
<path d="M21.4225 21.0415V28.3088H18.2106V21.0415V21.0171H18.1862H15.5612V18.0496H18.1862H18.2106V18.0252V15.7264C18.2106 14.4237 18.5986 13.4155 19.2804 12.733C19.9622 12.0505 20.9408 11.6909 22.1276 11.6909C22.6971 11.6909 23.28 11.7418 23.7207 11.7926C23.941 11.8181 24.1257 11.8435 24.2553 11.8626C24.3201 11.8721 24.3711 11.8801 24.4058 11.8856L24.4388 11.891V14.4139H23.1475C22.4941 14.4139 22.0615 14.6169 21.7927 14.9277C21.5244 15.2378 21.4225 15.6517 21.4225 16.0679V18.0252V18.0496H21.447H24.3127L23.8573 21.0171H21.447H21.4225V21.0415Z" fill="#697687" stroke="#697687" stroke-width="0.0488281"/>
</g>
<rect x="0.5" y="0.5" width="39" height="39" rx="19.5" stroke="#697687"/>
<defs>
<clipPath id="clip0_1_490">
<rect width="16.6667" height="16.6667" fill="white" transform="translate(11.6667 11.6665)"/>
</clipPath>
</defs>
</svg>
