<svg width="40" height="40" viewBox="0 0 40 40" fill="none" xmlns="http://www.w3.org/2000/svg">
<path d="M27.4313 23.1896C27.3728 24.3582 27.1058 25.3934 26.253 26.2463C25.4001 27.1024 24.3649 27.3693 23.1963 27.4246L27.4313 23.1896ZM27.4313 23.1896C27.4997 21.9852 27.4997 18.3784 27.4313 17.174V23.1896ZM27.407 17.1751L27.407 17.1754C27.4753 18.3789 27.4753 21.9847 27.407 23.1882L27.407 23.1884C27.3485 24.354 27.0826 25.3821 26.2357 26.229L26.2357 26.229C25.3888 27.0791 24.3607 27.3451 23.1952 27.4003L23.1949 27.4003C21.9914 27.4686 18.3823 27.4686 17.1788 27.4003L17.1787 27.4003C16.0131 27.3418 14.9882 27.0759 14.138 26.229C13.288 25.3821 13.022 24.354 12.9668 23.1885L12.9668 23.1882C12.8985 21.9847 12.8985 18.3756 12.9668 17.1721L12.9668 17.172C13.0252 16.0063 13.288 14.9782 14.138 14.1314C14.9882 13.2845 16.0164 13.0185 17.1786 12.9634L17.1788 12.9633C18.3823 12.895 21.9914 12.895 23.1949 12.9633L23.1951 12.9633C24.3607 13.0218 25.3888 13.2878 26.2357 14.1346L26.2357 14.1346C27.0858 14.9815 27.3518 16.0096 27.407 17.1751ZM24.4976 25.8913L24.4977 25.8913C25.1452 25.6317 25.6416 25.1352 25.898 24.491C26.0903 24.0079 26.1634 23.194 26.1891 22.3717C26.2074 21.7825 26.2014 21.1863 26.1965 20.7007C26.1945 20.5078 26.1927 20.3324 26.1927 20.1818C26.1927 20.0312 26.1945 19.8558 26.1965 19.663C26.2014 19.1777 26.2074 18.582 26.1891 17.9931C26.1634 17.1713 26.0903 16.3574 25.8981 15.8727L25.898 15.8726C25.6384 15.2251 25.1419 14.7287 24.4977 14.4723L24.4976 14.4722C24.0146 14.2817 23.2007 14.2085 22.3784 14.1825C21.7848 14.1637 21.1841 14.1694 20.6965 14.1741C20.5079 14.1759 20.3363 14.1776 20.1885 14.1776C20.0379 14.1776 19.8625 14.1758 19.6697 14.1738C19.1844 14.1689 18.5887 14.1629 17.9998 14.1812C17.178 14.2069 16.3641 14.28 15.8794 14.4723L15.8793 14.4723C15.2318 14.7319 14.7354 15.2284 14.479 15.8726L14.4789 15.8727C14.2884 16.3557 14.2152 17.1696 14.1892 17.9919C14.1704 18.5855 14.1761 19.1863 14.1808 19.6738C14.1826 19.8624 14.1843 20.0341 14.1843 20.1818C14.1843 20.3324 14.1825 20.5078 14.1805 20.7007C14.1756 21.1859 14.1696 21.7816 14.1879 22.3705C14.2136 23.1924 14.2867 24.0063 14.479 24.4909L14.479 24.491C14.7386 25.1385 15.2351 25.6349 15.8793 25.8913L15.8794 25.8914C16.3624 26.0819 17.1763 26.1551 17.9986 26.1811C18.5922 26.1999 19.193 26.1942 19.6805 26.1895C19.8691 26.1877 20.0408 26.186 20.1885 26.186C20.3391 26.186 20.5145 26.1878 20.7074 26.1898C21.1926 26.1947 21.7883 26.2007 22.3772 26.1824C23.1991 26.1567 24.013 26.0836 24.4976 25.8913ZM16.4727 20.1818C16.4727 18.125 18.1317 16.466 20.1885 16.466C22.2453 16.466 23.9043 18.125 23.9043 20.1818C23.9043 22.2386 22.2453 23.8976 20.1885 23.8976C18.1317 23.8976 16.4727 22.2386 16.4727 20.1818ZM17.7325 20.1818C17.7325 21.5365 18.8372 22.6379 20.1885 22.6379C21.5399 22.6379 22.6446 21.5365 22.6446 20.1818C22.6446 18.8272 21.5431 17.7257 20.1885 17.7257C18.8339 17.7257 17.7325 18.8272 17.7325 20.1818ZM24.9297 16.2886C24.9297 16.7601 24.5501 17.1366 24.0817 17.1366C23.6103 17.1366 23.2338 16.7569 23.2338 16.2886C23.2338 15.8203 23.6135 15.4406 24.0817 15.4406C24.55 15.4406 24.9297 15.8203 24.9297 16.2886Z" fill="#697687" stroke="#697687" stroke-width="0.0488281"/>
<rect x="0.5" y="0.5" width="39" height="39" rx="19.5" stroke="#697687"/>
</svg>
