<svg width="88" height="15" viewBox="0 0 88 15" fill="none" xmlns="http://www.w3.org/2000/svg">
<g clip-path="url(#clip0_1_147)">
<path d="M15.9105 5.73058C15.7625 5.27782 15.3694 4.94786 14.8961 4.8795L10.8999 4.30153L9.11257 0.697992C8.90097 0.271163 8.46411 0.000976562 7.98579 0.000976562C7.50755 0.000976562 7.07077 0.271246 6.85909 0.698076L5.07211 4.30153L1.07563 4.8795C0.602331 4.94786 0.209033 5.27782 0.061263 5.73058C-0.0865067 6.18333 0.0368022 6.68027 0.379336 7.01248L3.27115 9.81738L2.58834 13.7784C2.5075 14.2476 2.70126 14.7218 3.08819 15.0015C3.30709 15.1598 3.56635 15.2403 3.82688 15.2403C4.02692 15.2403 4.22771 15.1929 4.4115 15.0966L7.98579 13.2264L11.5604 15.0966C11.9837 15.3179 12.4966 15.2812 12.8837 15.0014C13.2706 14.7217 13.4644 14.2475 13.3836 13.7783L12.7009 9.81722L15.5924 7.0124C15.9349 6.68019 16.0582 6.18325 15.9105 5.73058Z" fill="#FFD751"/>
<path d="M15.9106 5.72952C15.7628 5.27684 15.3697 4.94689 14.8964 4.87853L10.9001 4.30072L9.11299 0.697016C8.90131 0.270186 8.46445 0 7.98621 0V13.2255L11.5608 15.0956C11.9841 15.3168 12.497 15.2802 12.8841 15.0003C13.2711 14.7206 13.4648 14.2464 13.384 13.7773L12.7014 9.81632L15.5929 7.01126C15.9353 6.67921 16.0585 6.18219 15.9106 5.72952Z" fill="#F4C82A"/>
<path d="M33.9107 5.73058C33.7628 5.27782 33.3697 4.94786 32.8964 4.8795L28.9001 4.30153L27.1128 0.697992C26.9012 0.271163 26.4644 0.000976562 25.986 0.000976562C25.5078 0.000976562 25.071 0.271246 24.8593 0.698076L23.0724 4.30153L19.0759 4.8795C18.6026 4.94786 18.2093 5.27782 18.0615 5.73058C17.9137 6.18333 18.037 6.68027 18.3796 7.01248L21.2714 9.81738L20.5886 13.7784C20.5077 14.2476 20.7015 14.7218 21.0884 15.0015C21.3073 15.1598 21.5666 15.2403 21.8271 15.2403C22.0272 15.2403 22.228 15.1929 22.4117 15.0966L25.986 13.2264L29.5606 15.0966C29.9839 15.3179 30.4969 15.2812 30.884 15.0014C31.2709 14.7217 31.4646 14.2475 31.3838 13.7783L30.7012 9.81722L33.5926 7.0124C33.9352 6.68019 34.0585 6.18325 33.9107 5.73058Z" fill="#FFD751"/>
<path d="M33.9109 5.72952C33.763 5.27684 33.3699 4.94689 32.8966 4.87853L28.9004 4.30072L27.1132 0.697016C26.9015 0.270186 26.4647 0 25.9865 0V13.2255L29.5611 15.0956C29.9844 15.3168 30.4973 15.2802 30.8844 15.0003C31.2713 14.7206 31.4651 14.2464 31.3842 13.7773L30.7017 9.81632L33.5931 7.01126C33.9355 6.67921 34.0587 6.18219 33.9109 5.72952Z" fill="#F4C82A"/>
<path d="M51.911 5.73058C51.763 5.27782 51.3699 4.94786 50.8966 4.8795L46.9004 4.30153L45.1131 0.697992C44.9015 0.271163 44.4646 0.000976562 43.9863 0.000976562C43.508 0.000976562 43.0713 0.271246 42.8596 0.698076L41.0726 4.30153L37.0761 4.8795C36.6028 4.94786 36.2095 5.27782 36.0618 5.73058C35.914 6.18333 36.0373 6.68027 36.3798 7.01248L39.2716 9.81738L38.5888 13.7784C38.508 14.2476 38.7018 14.7218 39.0887 15.0015C39.3076 15.1598 39.5668 15.2403 39.8274 15.2403C40.0274 15.2403 40.2282 15.1929 40.412 15.0966L43.9863 13.2264L47.5609 15.0966C47.9842 15.3179 48.4971 15.2812 48.8842 15.0014C49.2711 14.7217 49.4649 14.2475 49.3841 13.7783L48.7014 9.81722L51.5929 7.0124C51.9354 6.68019 52.0587 6.18325 51.911 5.73058Z" fill="#FFD751"/>
<path d="M51.9111 5.72952C51.7633 5.27684 51.3701 4.94689 50.8968 4.87853L46.9006 4.30072L45.1135 0.697016C44.9018 0.270186 44.4649 0 43.9867 0V13.2255L47.5613 15.0956C47.9846 15.3168 48.4975 15.2802 48.8846 15.0003C49.2715 14.7206 49.4653 14.2464 49.3845 13.7773L48.7019 9.81632L51.5934 7.01126C51.9358 6.67921 52.059 6.18219 51.9111 5.72952Z" fill="#F4C82A"/>
<path d="M69.9112 5.73058C69.7633 5.27782 69.3701 4.94786 68.8968 4.8795L64.9006 4.30153L63.1133 0.697992C62.9017 0.271163 62.4648 0.000976562 61.9865 0.000976562C61.5083 0.000976562 61.0715 0.271246 60.8598 0.698076L59.0728 4.30153L55.0764 4.8795C54.6031 4.94786 54.2098 5.27782 54.062 5.73058C53.9142 6.18333 54.0375 6.68027 54.3801 7.01248L57.2719 9.81738L56.5891 13.7784C56.5082 14.2476 56.702 14.7218 57.0889 15.0015C57.3078 15.1598 57.5671 15.2403 57.8276 15.2403C58.0276 15.2403 58.2284 15.1929 58.4122 15.0966L61.9865 13.2264L65.5611 15.0966C65.9844 15.3179 66.4973 15.2812 66.8844 15.0014C67.2714 14.7217 67.4651 14.2475 67.3843 13.7783L66.7017 9.81722L69.5931 7.0124C69.9357 6.68019 70.059 6.18325 69.9112 5.73058Z" fill="#FFD751"/>
<path d="M69.9114 5.72952C69.7635 5.27684 69.3704 4.94689 68.8971 4.87853L64.9009 4.30072L63.1137 0.697016C62.902 0.270186 62.4652 0 61.9869 0V13.2255L65.5616 15.0956C65.9848 15.3168 66.4978 15.2802 66.8849 15.0003C67.2718 14.7206 67.4656 14.2464 67.3847 13.7773L66.7022 9.81632L69.5936 7.01126C69.936 6.67921 70.0592 6.18219 69.9114 5.72952Z" fill="#F4C82A"/>
<path d="M87.9115 5.73058C87.7635 5.27782 87.3704 4.94786 86.8971 4.8795L82.9009 4.30153L81.1135 0.697992C80.9019 0.271163 80.4651 0.000976562 79.9868 0.000976562C79.5085 0.000976562 79.0717 0.271246 78.8601 0.698076L77.0731 4.30153L73.0766 4.8795C72.6033 4.94786 72.21 5.27782 72.0622 5.73058C71.9145 6.18333 72.0378 6.68027 72.3803 7.01248L75.2721 9.81738L74.5893 13.7784C74.5085 14.2476 74.7022 14.7218 75.0892 15.0015C75.3081 15.1598 75.5673 15.2403 75.8279 15.2403C76.0279 15.2403 76.2287 15.1929 76.4125 15.0966L79.9868 13.2264L83.5614 15.0966C83.9847 15.3179 84.4976 15.2812 84.8847 15.0014C85.2716 14.7217 85.4654 14.2475 85.3845 13.7783L84.7019 9.81722L87.5934 7.0124C87.9359 6.68019 88.0592 6.18325 87.9115 5.73058Z" fill="#FFD751"/>
<path d="M87.9116 5.72952C87.7638 5.27684 87.3706 4.94689 86.8973 4.87853L82.9011 4.30072L81.114 0.697016C80.9023 0.270186 80.4654 0 79.9872 0V13.2255L83.5618 15.0956C83.9851 15.3168 84.498 15.2802 84.8851 15.0003C85.272 14.7206 85.4658 14.2464 85.385 13.7773L84.7024 9.81632L87.5939 7.01126C87.9362 6.67921 88.0595 6.18219 87.9116 5.72952Z" fill="#F4C82A"/>
</g>
<defs>
<clipPath id="clip0_1_147">
<rect width="88" height="15" fill="white"/>
</clipPath>
</defs>
</svg>
