<svg width="41" height="41" viewBox="0 0 41 41" fill="none" xmlns="http://www.w3.org/2000/svg">
<g clip-path="url(#clip0_1_263)">
<path d="M2.28391 40.9999H1.20117C0.537805 40.9999 0 40.4621 0 39.7987V38.716C0 35.8182 0.739842 32.9448 2.13945 30.4064C3.53409 27.8771 5.56063 25.7211 8.00004 24.1715C8.47491 23.8698 9.09567 23.9381 9.49342 24.336L16.6638 31.5065C17.0616 31.9043 17.13 32.525 16.8283 32.9999C15.2787 35.4393 13.1226 37.4658 10.5934 38.8605C8.05498 40.2601 5.18162 40.9999 2.28391 40.9999Z" fill="#FF9737"/>
<path d="M1.20116 41H2.2839C5.18161 41 8.05497 40.2602 10.5934 38.8605C13.1227 37.4659 15.2787 35.4394 16.8284 32.9999C17.1301 32.525 17.0618 31.9043 16.6638 31.5066L13.0787 27.9214L0.351776 40.6481C0.569188 40.8655 0.869481 41 1.20116 41Z" fill="#FF6108"/>
<path d="M25.8195 39.0315C25.7555 39.0315 25.6912 39.0265 25.6271 39.0161C25.2459 38.9542 24.9178 38.7129 24.7451 38.3675L21.2141 31.3056C20.9537 30.785 21.1042 30.1527 21.5711 29.805L32.0073 22.0341C32.3581 21.7728 32.8232 21.723 33.2215 21.904C33.6198 22.085 33.8882 22.4681 33.9222 22.9042C34.3139 27.9284 32.4956 32.8528 28.9337 36.4148L26.6687 38.6797C26.4417 38.9067 26.1353 39.0315 25.8195 39.0315Z" fill="#0167FF"/>
<path d="M10.2312 19.9131C10.0496 19.9131 9.86611 19.8719 9.69458 19.7862L2.63265 16.2551C2.28727 16.0825 2.046 15.7543 1.98418 15.3731C1.92235 14.992 2.04744 14.6044 2.3205 14.3314L4.58551 12.0665C8.14739 8.50451 13.0722 6.68674 18.0961 7.07792C18.5322 7.11195 18.9153 7.38029 19.0963 7.7786C19.2773 8.17691 19.2274 8.642 18.9662 8.99283L11.1952 19.4291C10.9621 19.7423 10.6009 19.9131 10.2312 19.9131Z" fill="#3685FB"/>
<path d="M39.5321 13.1713C36.467 13.0044 33.5907 11.7243 31.4331 9.56688C29.2757 7.40942 27.9956 4.53309 27.8287 1.46786L27.8069 1.06787C23.8387 2.25671 20.1636 4.4153 17.1491 7.42984L17.0896 7.48942C12.4276 12.1514 8.88993 17.6453 6.57495 23.8187C6.40958 24.2598 6.51721 24.7567 6.85025 25.0898L15.9101 34.1496C16.1394 34.379 16.4466 34.5014 16.7596 34.5014C16.9011 34.5014 17.0439 34.4764 17.1811 34.425C23.3544 32.11 28.8484 28.5724 33.5104 23.9103L33.5702 23.8505C36.5845 20.8361 38.743 17.1612 39.9318 13.1931L39.5321 13.1713Z" fill="#E6F3FF"/>
<path d="M15.9103 34.1496C16.1396 34.379 16.4468 34.5015 16.7598 34.5015C16.9013 34.5015 17.0441 34.4764 17.1814 34.425C23.3547 32.11 28.8486 28.5724 33.5107 23.9103L33.5705 23.8505C36.5849 20.8361 38.7433 17.1613 39.9321 13.1931L39.5322 13.1713C36.4671 13.0044 33.5907 11.7244 31.4332 9.56689L11.3803 29.6197L15.9103 34.1496Z" fill="#D2DCF0"/>
<path d="M40.5909 1.37607C40.5014 0.883913 40.1162 0.498657 39.624 0.40921C35.3362 -0.370511 30.99 -0.0214501 26.977 1.33243L27.028 2.26862C27.1949 5.33377 28.4749 8.2101 30.6324 10.3676C32.7899 12.525 35.6662 13.8052 38.7314 13.972L39.6676 14.0231C41.0214 10.0102 41.3704 5.66394 40.5909 1.37607Z" fill="#3685FB"/>
<path d="M30.6324 10.3675C32.7899 12.5249 35.6662 13.805 38.7314 13.9719L39.6676 14.0229C41.0215 10.01 41.3705 5.66386 40.5909 1.37591C40.5462 1.12983 40.4275 0.91042 40.2584 0.741455L30.6324 10.3675Z" fill="#0167FF"/>
<path d="M25.2532 20.9519C23.8629 20.9519 22.5557 20.4105 21.5726 19.4274C20.5895 18.4444 20.048 17.1372 20.048 15.7468C20.048 14.3565 20.5894 13.0493 21.5726 12.0663C22.5557 11.0832 23.8629 10.5417 25.2532 10.5417C26.6435 10.5417 27.9507 11.0832 28.9338 12.0663C29.9169 13.0493 30.4583 14.3565 30.4583 15.7468C30.4583 17.1372 29.9169 18.4444 28.9338 19.4274C27.9506 20.4105 26.6435 20.9519 25.2532 20.9519Z" fill="#3685FB"/>
<path d="M8.8323 33.369C8.52488 33.369 8.21746 33.2517 7.98299 33.0171C7.51389 32.5481 7.51389 31.7875 7.98299 31.3184L18.1752 21.1262C18.6442 20.6572 19.4048 20.6572 19.8739 21.1262C20.343 21.5952 20.343 22.3558 19.8739 22.8249L9.6816 33.0171C9.44706 33.2517 9.13964 33.369 8.8323 33.369Z" fill="#3685FB"/>
<path d="M21.5726 19.4275C22.5557 20.4106 23.8629 20.952 25.2532 20.952C26.6435 20.952 27.9507 20.4106 28.9337 19.4275C29.9169 18.4445 30.4583 17.1373 30.4583 15.747C30.4583 14.3566 29.9169 13.0494 28.9337 12.0664L21.5726 19.4275Z" fill="#0167FF"/>
<path d="M7.98294 33.0172C8.21749 33.2517 8.52491 33.369 8.83225 33.369C9.13959 33.369 9.44709 33.2517 9.68156 33.0172L19.8738 22.8249C20.3429 22.3559 20.3429 21.5953 19.8738 21.1262C19.8738 21.1262 19.8738 21.1262 19.8737 21.1262L7.98294 33.0172Z" fill="#0167FF"/>
<path d="M25.2532 18.5496C24.5046 18.5496 23.8008 18.2581 23.2714 17.7287C22.742 17.1994 22.4504 16.4955 22.4504 15.7468C22.4504 14.9982 22.742 14.2944 23.2714 13.765C23.8007 13.2356 24.5046 12.9441 25.2532 12.9441C26.0019 12.9441 26.7057 13.2356 27.2351 13.765C27.7645 14.2943 28.056 14.9982 28.056 15.7468C28.056 16.4955 27.7645 17.1993 27.2351 17.7287C26.7057 18.2581 26.0018 18.5496 25.2532 18.5496Z" fill="#00F2D9"/>
<path d="M23.2713 17.7288C23.8006 18.2582 24.5045 18.5497 25.2532 18.5497C26.0018 18.5497 26.7056 18.2582 27.235 17.7288C27.7644 17.1995 28.0559 16.4956 28.0559 15.747C28.0559 14.9983 27.7644 14.2945 27.235 13.7651L23.2713 17.7288Z" fill="#00B3A0"/>
</g>
<defs>
<clipPath id="clip0_1_263">
<rect width="41" height="41" fill="white"/>
</clipPath>
</defs>
</svg>
